<svg aria-hidden="true" style="position: absolute; width: 0; height: 0; overflow: hidden;" version="1.1" xmlns="http://www.w3.org/2000/svg" xmlns:xlink="http://www.w3.org/1999/xlink">
<defs>
<symbol id="icon-background-image-ballons-aeronautics" viewBox="0 0 32 32">
<path d="M25.143 0h-18.286c-3.787 0-6.857 3.070-6.857 6.857v18.286c0 3.787 3.070 6.857 6.857 6.857h18.286c3.787 0 6.857-3.070 6.857-6.857v-18.286c0-3.787-3.070-6.857-6.857-6.857z"></path>
</symbol>
<symbol id="icon-background-image-balloon-mountains" viewBox="0 0 32 32">
<path d="M25.143 0h-18.286c-3.787 0-6.857 3.070-6.857 6.857v18.286c0 3.787 3.070 6.857 6.857 6.857h18.286c3.787 0 6.857-3.070 6.857-6.857v-18.286c0-3.787-3.070-6.857-6.857-6.857z"></path>
</symbol>
<symbol id="icon-background-image-cliff" viewBox="0 0 32 32">
<path d="M25.143 0h-18.286c-3.787 0-6.857 3.070-6.857 6.857v18.286c0 3.787 3.070 6.857 6.857 6.857h18.286c3.787 0 6.857-3.070 6.857-6.857v-18.286c0-3.787-3.070-6.857-6.857-6.857z"></path>
</symbol>
<symbol id="icon-background-image-cutter" viewBox="0 0 32 32">
<path d="M25.143 0h-18.286c-3.787 0-6.857 3.070-6.857 6.857v18.286c0 3.787 3.070 6.857 6.857 6.857h18.286c3.787 0 6.857-3.070 6.857-6.857v-18.286c0-3.787-3.070-6.857-6.857-6.857z"></path>
</symbol>
<symbol id="icon-background-image-default" viewBox="0 0 32 32">
<path d="M25.143 0h-18.286c-3.787 0-6.857 3.070-6.857 6.857v18.286c0 3.787 3.070 6.857 6.857 6.857h18.286c3.787 0 6.857-3.070 6.857-6.857v-18.286c0-3.787-3.070-6.857-6.857-6.857z"></path>
<path fill="none" stroke="#fff" style="stroke: var(--color1, #fff)" stroke-linejoin="round" stroke-linecap="round" stroke-miterlimit="4" stroke-width="1.1429" d="M21.333 22.857h0.77c0.74 0 1.11 0 1.314-0.154 0.178-0.134 0.288-0.34 0.301-0.562 0.015-0.255-0.19-0.563-0.6-1.179l-2.294-3.44c-0.339-0.509-0.509-0.763-0.723-0.852-0.187-0.078-0.397-0.078-0.584 0-0.214 0.089-0.383 0.343-0.723 0.852l-0.567 0.851M21.333 22.857l-5.855-8.457c-0.337-0.486-0.505-0.729-0.715-0.815-0.184-0.075-0.39-0.075-0.574 0-0.21 0.085-0.379 0.329-0.715 0.815l-4.531 6.544c-0.429 0.62-0.643 0.929-0.631 1.187 0.011 0.224 0.12 0.433 0.298 0.569 0.205 0.157 0.582 0.157 1.335 0.157h11.388zM22.857 11.429c0 1.262-1.023 2.286-2.286 2.286s-2.286-1.023-2.286-2.286c0-1.262 1.023-2.286 2.286-2.286s2.286 1.023 2.286 2.286z"></path>
</symbol>
<symbol id="icon-background-image-magnolia" viewBox="0 0 32 32">
<path d="M25.143 0h-18.286c-3.787 0-6.857 3.070-6.857 6.857v18.286c0 3.787 3.070 6.857 6.857 6.857h18.286c3.787 0 6.857-3.070 6.857-6.857v-18.286c0-3.787-3.070-6.857-6.857-6.857z"></path>
</symbol>
<symbol id="icon-background-image-milky-way" viewBox="0 0 32 32">
<path d="M25.143 0h-18.286c-3.787 0-6.857 3.070-6.857 6.857v18.286c0 3.787 3.070 6.857 6.857 6.857h18.286c3.787 0 6.857-3.070 6.857-6.857v-18.286c0-3.787-3.070-6.857-6.857-6.857z"></path>
</symbol>
<symbol id="icon-background-image-mountains-sunset" viewBox="0 0 32 32">
<path d="M25.143 0h-18.286c-3.787 0-6.857 3.070-6.857 6.857v18.286c0 3.787 3.070 6.857 6.857 6.857h18.286c3.787 0 6.857-3.070 6.857-6.857v-18.286c0-3.787-3.070-6.857-6.857-6.857z"></path>
</symbol>
<symbol id="icon-background-image-night-mountains" viewBox="0 0 32 32">
<path d="M25.143 0h-18.286c-3.787 0-6.857 3.070-6.857 6.857v18.286c0 3.787 3.070 6.857 6.857 6.857h18.286c3.787 0 6.857-3.070 6.857-6.857v-18.286c0-3.787-3.070-6.857-6.857-6.857z"></path>
</symbol>
<symbol id="icon-background-image-ocean-sunset" viewBox="0 0 32 32">
<path d="M25.143 0h-18.286c-3.787 0-6.857 3.070-6.857 6.857v18.286c0 3.787 3.070 6.857 6.857 6.857h18.286c3.787 0 6.857-3.070 6.857-6.857v-18.286c0-3.787-3.070-6.857-6.857-6.857z"></path>
</symbol>
<symbol id="icon-background-image-palms" viewBox="0 0 32 32">
<path d="M25.143 0h-18.286c-3.787 0-6.857 3.070-6.857 6.857v18.286c0 3.787 3.070 6.857 6.857 6.857h18.286c3.787 0 6.857-3.070 6.857-6.857v-18.286c0-3.787-3.070-6.857-6.857-6.857z"></path>
</symbol>
<symbol id="icon-background-image-pink-cloud" viewBox="0 0 32 32">
<path d="M25.143 0h-18.286c-3.787 0-6.857 3.070-6.857 6.857v18.286c0 3.787 3.070 6.857 6.857 6.857h18.286c3.787 0 6.857-3.070 6.857-6.857v-18.286c0-3.787-3.070-6.857-6.857-6.857z"></path>
</symbol>
<symbol id="icon-background-image-purple-ball" viewBox="0 0 32 32">
<path d="M25.143 0h-18.286c-3.787 0-6.857 3.070-6.857 6.857v18.286c0 3.787 3.070 6.857 6.857 6.857h18.286c3.787 0 6.857-3.070 6.857-6.857v-18.286c0-3.787-3.070-6.857-6.857-6.857z"></path>
</symbol>
<symbol id="icon-background-image-red-moon" viewBox="0 0 32 32">
<path d="M25.143 0h-18.286c-3.787 0-6.857 3.070-6.857 6.857v18.286c0 3.787 3.070 6.857 6.857 6.857h18.286c3.787 0 6.857-3.070 6.857-6.857v-18.286c0-3.787-3.070-6.857-6.857-6.857z"></path>
</symbol>
<symbol id="icon-background-image-sakura-tree" viewBox="0 0 32 32">
<path d="M25.143 0h-18.286c-3.787 0-6.857 3.070-6.857 6.857v18.286c0 3.787 3.070 6.857 6.857 6.857h18.286c3.787 0 6.857-3.070 6.857-6.857v-18.286c0-3.787-3.070-6.857-6.857-6.857z"></path>
</symbol>
<symbol id="icon-background-image-white-cloud" viewBox="0 0 32 32">
<path d="M25.143 0h-18.286c-3.787 0-6.857 3.070-6.857 6.857v18.286c0 3.787 3.070 6.857 6.857 6.857h18.286c3.787 0 6.857-3.070 6.857-6.857v-18.286c0-3.787-3.070-6.857-6.857-6.857z"></path>
</symbol>
</defs>
</svg>
