<svg aria-hidden="true" style="position: absolute; width: 0; height: 0; overflow: hidden;" version="1.1"
    xmlns="http://www.w3.org/2000/svg" xmlns:xlink="http://www.w3.org/1999/xlink">
    <defs>
        <symbol id="icon-help-circle" viewBox="0 0 32 32">
            <path stroke-linejoin="round" stroke-linecap="round" stroke-miterlimit="4" stroke-width="2.88"
                d="M16 29.333c7.364 0 13.333-5.97 13.333-13.333s-5.969-13.333-13.333-13.333-13.333 5.97-13.333 13.333c0 7.364 5.97 13.333 13.333 13.333z">
            </path>
            <path stroke-linejoin="round" stroke-linecap="round" stroke-miterlimit="4" stroke-width="2.88"
                d="M12.12 12c0.313-0.891 0.932-1.643 1.747-2.121s1.772-0.654 2.703-0.494c0.931 0.16 1.776 0.644 2.384 1.366s0.941 1.637 0.94 2.582c0 2.667-4 4-4 4">
            </path>
            <path stroke-linejoin="round" stroke-linecap="round" stroke-miterlimit="4" stroke-width="2.88"
                d="M16 22.667h0.020"></path>
        </symbol>
        <symbol id="icon-arrow-circle-broken-right" viewBox="0 0 32 32">
            <path stroke-linejoin="round" stroke-linecap="round" stroke-miterlimit="4" stroke-width="2.6"
                d="M4.45 9.333c2.305-3.985 6.614-6.667 11.55-6.667 7.364 0 13.333 5.97 13.333 13.333s-5.97 13.333-13.333 13.333c-4.935 0-9.244-2.681-11.55-6.667">
            </path>
            <path stroke-linejoin="round" stroke-linecap="round" stroke-miterlimit="4" stroke-width="2.6"
                d="M16 21.333l5.333-5.333-5.333-5.333"></path>
            <path stroke-linejoin="round" stroke-linecap="round" stroke-miterlimit="4" stroke-width="2.6"
                d="M2.667 16h18.667"></path>
        </symbol>
        <symbol id="icon-bell" viewBox="0 0 32 32">
            <path stroke-linejoin="round" stroke-linecap="round" stroke-miterlimit="4" stroke-width="3"
                d="M12.472 28c0.94 0.83 2.175 1.333 3.528 1.333s2.588-0.503 3.528-1.333M24 10.667c0-2.122-0.843-4.157-2.343-5.657s-3.535-2.343-5.657-2.343-4.157 0.843-5.657 2.343c-1.5 1.5-2.343 3.535-2.343 5.657 0 4.12-1.039 6.941-2.2 8.807-0.979 1.574-1.469 2.361-1.451 2.581 0.020 0.243 0.071 0.336 0.267 0.481 0.177 0.131 0.974 0.131 2.569 0.131h17.63c1.595 0 2.392 0 2.569-0.131 0.196-0.145 0.247-0.238 0.267-0.481 0.018-0.22-0.472-1.007-1.451-2.581-1.161-1.866-2.2-4.687-2.2-8.807z">
            </path>
        </symbol>
        <symbol id="icon-box" viewBox="0 0 32 32">
            <path stroke-linejoin="round" stroke-linecap="round" stroke-miterlimit="4" stroke-width="2.6667"
                d="M27.333 9.704l-11.333 6.296M16 16l-11.333-6.296M16 16l0 12.667M28 21.411v-10.823c0-0.457 0-0.685-0.067-0.889-0.060-0.18-0.157-0.346-0.285-0.485-0.145-0.158-0.345-0.269-0.744-0.491l-9.867-5.481c-0.378-0.21-0.567-0.315-0.767-0.356-0.177-0.036-0.36-0.036-0.537 0-0.2 0.041-0.389 0.146-0.767 0.356l-9.867 5.481c-0.399 0.222-0.599 0.333-0.744 0.491-0.129 0.14-0.226 0.305-0.286 0.485-0.067 0.204-0.067 0.432-0.067 0.889v10.823c0 0.457 0 0.685 0.067 0.889 0.060 0.18 0.157 0.346 0.286 0.485 0.145 0.158 0.345 0.269 0.744 0.491l9.867 5.481c0.378 0.21 0.567 0.315 0.767 0.356 0.177 0.036 0.36 0.036 0.537 0 0.2-0.041 0.389-0.146 0.767-0.356l9.867-5.481c0.399-0.222 0.599-0.333 0.744-0.491 0.129-0.14 0.226-0.305 0.285-0.485 0.067-0.204 0.067-0.432 0.067-0.889z">
            </path>
        </symbol>
        <symbol id="icon-colors-black" viewBox="0 0 32 32">
            <path stroke-linejoin="round" stroke-linecap="round" stroke-miterlimit="4" stroke-width="2.6667"
                d="M16 27.296c1.415 1.267 3.284 2.037 5.333 2.037 4.418 0 8-3.582 8-8 0-3.689-2.497-6.795-5.893-7.72M8.56 13.614c-3.396 0.925-5.894 4.031-5.894 7.72 0 4.418 3.582 8 8 8s8-3.582 8-8c0-1.041-0.199-2.035-0.56-2.947M24 10.667c0 4.418-3.582 8-8 8s-8-3.582-8-8 3.582-8 8-8c4.418 0 8 3.582 8 8z">
            </path>
        </symbol>
        <symbol id="icon-filter" viewBox="0 0 32 32">
            <path stroke-linejoin="round" stroke-linecap="round" stroke-miterlimit="4" stroke-width="3"
                d="M29.334 4h-26.667l10.667 12.613v8.72l5.333 2.667v-11.387l10.667-12.613z"></path>
        </symbol>
        <symbol id="icon-four-balls" viewBox="0 0 32 32">
            <path stroke-linejoin="miter" stroke-linecap="butt" stroke-miterlimit="4" stroke-width="2.6667"
                d="M4.396 6.978c0.301-1.281 1.301-2.282 2.582-2.582v0c1.11-0.26 2.266-0.26 3.377 0v0c1.281 0.301 2.282 1.301 2.582 2.582v0c0.26 1.11 0.26 2.266 0 3.377v0c-0.301 1.281-1.301 2.282-2.582 2.582v0c-1.11 0.26-2.266 0.26-3.377 0v0c-1.281-0.301-2.282-1.301-2.582-2.582v0c-0.26-1.11-0.26-2.266 0-3.377v0z">
            </path>
            <path stroke-linejoin="miter" stroke-linecap="butt" stroke-miterlimit="4" stroke-width="2.6667"
                d="M4.396 21.645c0.301-1.281 1.301-2.282 2.582-2.582v0c1.11-0.261 2.266-0.261 3.377 0v0c1.281 0.3 2.282 1.301 2.582 2.582v0c0.26 1.111 0.26 2.266 0 3.377v0c-0.301 1.281-1.301 2.282-2.582 2.582v0c-1.11 0.261-2.266 0.261-3.377 0v0c-1.281-0.3-2.282-1.301-2.582-2.582v0c-0.26-1.111-0.26-2.266 0-3.377v0z">
            </path>
            <path stroke-linejoin="miter" stroke-linecap="butt" stroke-miterlimit="4" stroke-width="2.6667"
                d="M19.063 6.978c0.3-1.281 1.301-2.282 2.582-2.582v0c1.111-0.26 2.266-0.26 3.377 0v0c1.281 0.301 2.282 1.301 2.582 2.582v0c0.261 1.11 0.261 2.266 0 3.377v0c-0.3 1.281-1.301 2.282-2.582 2.582v0c-1.111 0.26-2.266 0.26-3.377 0v0c-1.281-0.301-2.282-1.301-2.582-2.582v0c-0.261-1.11-0.261-2.266 0-3.377v0z">
            </path>
            <path stroke-linejoin="miter" stroke-linecap="butt" stroke-miterlimit="4" stroke-width="2.6667"
                d="M19.063 21.645c0.3-1.281 1.301-2.282 2.582-2.582v0c1.111-0.261 2.266-0.261 3.377 0v0c1.281 0.3 2.282 1.301 2.582 2.582v0c0.261 1.111 0.261 2.266 0 3.377v0c-0.3 1.281-1.301 2.282-2.582 2.582v0c-1.111 0.261-2.266 0.261-3.377 0v0c-1.281-0.3-2.282-1.301-2.582-2.582v0c-0.261-1.111-0.261-2.266 0-3.377v0z">
            </path>
        </symbol>
        <symbol id="icon-hexagon" viewBox="0 0 32 32">
            <path stroke-linejoin="round" stroke-linecap="round" stroke-miterlimit="4" stroke-width="2.6667"
                d="M14.964 3.242c0.378-0.21 0.567-0.315 0.767-0.356 0.177-0.036 0.36-0.036 0.537 0 0.2 0.041 0.389 0.146 0.767 0.356l9.867 5.482c0.399 0.222 0.599 0.333 0.744 0.491 0.129 0.14 0.226 0.305 0.285 0.485 0.067 0.204 0.067 0.432 0.067 0.889v10.823c0 0.457 0 0.685-0.067 0.889-0.060 0.18-0.157 0.346-0.285 0.485-0.145 0.158-0.345 0.269-0.744 0.491l-9.867 5.482c-0.378 0.21-0.567 0.315-0.767 0.356-0.177 0.036-0.36 0.036-0.537 0-0.2-0.041-0.389-0.146-0.767-0.356l-9.867-5.482c-0.399-0.222-0.599-0.333-0.744-0.491-0.129-0.14-0.226-0.305-0.286-0.485-0.067-0.204-0.067-0.432-0.067-0.889v-10.823c0-0.457 0-0.685 0.067-0.889 0.060-0.18 0.157-0.346 0.286-0.485 0.145-0.158 0.345-0.269 0.744-0.491l9.867-5.481z">
            </path>
        </symbol>
        <symbol id="icon-lightning" viewBox="0 0 32 32">
            <path stroke-linejoin="round" stroke-linecap="round" stroke-miterlimit="4" stroke-width="2.6667"
                d="M19.888 2.667h-7.674c-0.239 0-0.359 0-0.465 0.036-0.093 0.032-0.178 0.085-0.249 0.154-0.080 0.078-0.133 0.185-0.24 0.399l-5.6 11.2c-0.256 0.511-0.383 0.767-0.353 0.974 0.027 0.181 0.127 0.344 0.277 0.449 0.172 0.12 0.458 0.12 1.029 0.12h8.274l-4 13.333 16.258-16.86c0.548-0.569 0.823-0.853 0.839-1.097 0.014-0.211-0.073-0.417-0.235-0.553-0.186-0.157-0.581-0.157-1.372-0.157h-9.49l3-8z">
            </path>
        </symbol>
        <symbol id="icon-loading" viewBox="0 0 32 32">
            <path stroke-linejoin="round" stroke-linecap="round" stroke-miterlimit="4" stroke-width="2.6667"
                d="M4.454 22.666c-1.67-2.893-0.821-6.58 1.944-8.453l0.003-0.003c2.221-1.501 5.143-1.45 7.312 0.126l4.576 3.327c2.167 1.576 5.090 1.627 7.312 0.126l0.003-0.003c2.766-1.872 3.616-5.563 1.943-8.453M22.669 27.546c-2.893 1.669-6.58 0.821-8.453-1.944l-0.003-0.003c-1.501-2.221-1.45-5.143 0.126-7.312l3.327-4.576c1.576-2.167 1.627-5.090 0.126-7.312l-0.006-0.003c-1.872-2.763-5.563-3.615-8.453-1.942M25.427 6.572c5.207 5.207 5.207 13.648 0 18.855s-13.648 5.207-18.855 0c-5.207-5.207-5.207-13.648 0-18.855s13.648-5.207 18.855 0z">
            </path>
        </symbol>
        <symbol id="icon-logo-full-dark-theme" viewBox="0 0 32 32">
            <path fill="#1f1f1f" style="fill: var(--color1, #1f1f1f)"
                d="M7.385 11.077h-4.923c-1.359 0-2.462 1.102-2.462 2.462v4.923c0 1.359 1.102 2.462 2.462 2.462h4.923c1.359 0 2.462-1.102 2.462-2.462v-4.923c0-1.359-1.102-2.462-2.462-2.462z">
            </path>
            <path fill="#fff" style="fill: var(--color2, #fff)"
                d="M4.102 18.162c0.075-0.391 0.139-0.803 0.23-1.215 0.045-0.216-0.010-0.308-0.251-0.291s-0.51 0.008-0.766 0c-0.256-0.008-0.302-0.137-0.155-0.321 0.727-0.898 1.462-1.785 2.195-2.669 0.082-0.1 0.177-0.172 0.312-0.096s0.107 0.169 0.085 0.281c-0.081 0.412-0.148 0.824-0.237 1.227-0.046 0.209 0.014 0.283 0.231 0.275 0.218-0.011 0.437-0.011 0.655 0 0.124 0 0.287-0.065 0.351 0.104s-0.071 0.24-0.139 0.34c-0.279 0.343-0.561 0.686-0.847 1.028-0.419 0.5-0.834 0.998-1.247 1.494-0.081 0.097-0.171 0.176-0.309 0.126s-0.109-0.166-0.109-0.284z">
            </path>
            <path fill="#fff" style="fill: var(--color2, #fff)"
                d="M14.986 14.41v0.556h-0.916v2.88h-0.689v-2.88h-0.916v-0.556h2.521zM15.115 16.473c0-0.276 0.054-0.52 0.162-0.734 0.112-0.213 0.261-0.377 0.448-0.492 0.19-0.115 0.402-0.172 0.635-0.172 0.203 0 0.381 0.041 0.532 0.123 0.154 0.082 0.277 0.185 0.369 0.31v-0.389h0.694v2.727h-0.694v-0.399c-0.089 0.128-0.212 0.235-0.369 0.32-0.154 0.082-0.333 0.123-0.537 0.123-0.23 0-0.44-0.059-0.63-0.177-0.187-0.118-0.336-0.284-0.448-0.497-0.108-0.217-0.162-0.464-0.162-0.743zM17.261 16.482c0-0.167-0.033-0.31-0.098-0.428-0.066-0.121-0.154-0.213-0.266-0.276-0.112-0.066-0.231-0.098-0.359-0.098s-0.246 0.031-0.354 0.094c-0.108 0.062-0.197 0.154-0.266 0.276-0.066 0.118-0.098 0.259-0.098 0.423s0.033 0.309 0.098 0.433c0.069 0.121 0.158 0.215 0.266 0.281 0.112 0.066 0.23 0.098 0.354 0.098 0.128 0 0.248-0.031 0.359-0.094 0.112-0.066 0.2-0.158 0.266-0.276 0.066-0.121 0.098-0.266 0.098-0.433zM19.475 17.89c-0.223 0-0.423-0.039-0.601-0.118-0.177-0.082-0.318-0.192-0.423-0.33-0.102-0.138-0.158-0.29-0.167-0.458h0.694c0.013 0.105 0.064 0.192 0.153 0.261 0.092 0.069 0.205 0.103 0.34 0.103 0.131 0 0.233-0.026 0.305-0.079 0.076-0.053 0.113-0.12 0.113-0.202 0-0.089-0.046-0.154-0.138-0.197-0.089-0.046-0.231-0.095-0.428-0.148-0.203-0.049-0.371-0.1-0.502-0.153-0.128-0.053-0.24-0.133-0.335-0.241-0.092-0.108-0.138-0.254-0.138-0.438 0-0.151 0.043-0.289 0.128-0.414 0.089-0.125 0.213-0.223 0.374-0.295 0.164-0.072 0.356-0.108 0.576-0.108 0.325 0 0.584 0.082 0.778 0.246 0.194 0.161 0.3 0.379 0.32 0.655h-0.66c-0.010-0.108-0.056-0.194-0.138-0.256-0.079-0.066-0.185-0.098-0.32-0.098-0.125 0-0.222 0.023-0.29 0.069-0.066 0.046-0.098 0.11-0.098 0.192 0 0.092 0.046 0.162 0.138 0.212 0.092 0.046 0.235 0.094 0.428 0.143 0.197 0.049 0.359 0.1 0.487 0.153s0.238 0.135 0.33 0.246c0.095 0.108 0.144 0.253 0.148 0.433 0 0.158-0.044 0.299-0.133 0.423-0.085 0.125-0.21 0.223-0.374 0.295-0.161 0.069-0.35 0.103-0.566 0.103zM22.532 17.846l-0.926-1.162v1.162h-0.689v-3.643h0.689v2.073l0.916-1.157h0.896l-1.201 1.369 1.211 1.359h-0.896zM27.077 15.473c0 0.184-0.044 0.356-0.133 0.517-0.085 0.161-0.222 0.29-0.409 0.389-0.184 0.098-0.417 0.148-0.699 0.148h-0.576v1.319h-0.689v-3.436h1.265c0.266 0 0.492 0.046 0.679 0.138s0.327 0.218 0.418 0.379c0.095 0.161 0.143 0.343 0.143 0.546zM25.807 15.97c0.19 0 0.331-0.043 0.423-0.128 0.092-0.089 0.138-0.212 0.138-0.369 0-0.335-0.187-0.502-0.561-0.502h-0.546v0.999h0.546zM28.059 15.542c0.089-0.144 0.203-0.258 0.345-0.34 0.144-0.082 0.309-0.123 0.492-0.123v0.724h-0.182c-0.217 0-0.381 0.051-0.492 0.153-0.108 0.102-0.162 0.279-0.162 0.532v1.359h-0.689v-2.727h0.689v0.423zM30.374 17.89c-0.263 0-0.499-0.057-0.709-0.172-0.21-0.118-0.376-0.284-0.497-0.497-0.118-0.213-0.177-0.459-0.177-0.738s0.061-0.525 0.182-0.738c0.125-0.213 0.294-0.377 0.507-0.492 0.213-0.118 0.451-0.177 0.714-0.177s0.501 0.059 0.714 0.177c0.214 0.115 0.381 0.279 0.502 0.492 0.125 0.213 0.187 0.459 0.187 0.738s-0.064 0.525-0.192 0.738c-0.125 0.213-0.295 0.379-0.512 0.497-0.213 0.115-0.453 0.172-0.719 0.172zM30.374 17.29c0.125 0 0.241-0.030 0.35-0.089 0.112-0.062 0.2-0.154 0.266-0.276s0.098-0.269 0.098-0.443c0-0.259-0.069-0.458-0.207-0.596-0.134-0.141-0.3-0.212-0.497-0.212s-0.363 0.071-0.497 0.212c-0.131 0.138-0.197 0.336-0.197 0.596s0.064 0.459 0.192 0.601c0.131 0.138 0.295 0.207 0.492 0.207z">
            </path>
        </symbol>
        <symbol id="icon-logo-full-violet-theme" viewBox="0 0 32 32">
            <path fill="#ecedfd" style="fill: var(--color3, #ecedfd)"
                d="M7.385 11.077h-4.923c-1.359 0-2.462 1.102-2.462 2.462v4.923c0 1.359 1.102 2.462 2.462 2.462h4.923c1.359 0 2.462-1.102 2.462-2.462v-4.923c0-1.359-1.102-2.462-2.462-2.462z">
            </path>
            <path fill="#5255bc" style="fill: var(--color4, #5255bc)"
                d="M4.102 18.162c0.075-0.391 0.139-0.803 0.23-1.215 0.045-0.216-0.010-0.308-0.251-0.291s-0.51 0.008-0.766 0c-0.256-0.008-0.302-0.137-0.155-0.321 0.727-0.898 1.462-1.785 2.195-2.669 0.082-0.1 0.177-0.172 0.312-0.096s0.107 0.169 0.085 0.281c-0.081 0.412-0.148 0.824-0.237 1.227-0.046 0.209 0.014 0.283 0.231 0.275 0.218-0.011 0.437-0.011 0.655 0 0.124 0 0.287-0.065 0.351 0.104s-0.071 0.24-0.139 0.34c-0.279 0.343-0.561 0.686-0.847 1.028-0.419 0.5-0.834 0.998-1.247 1.494-0.081 0.097-0.171 0.176-0.309 0.126s-0.109-0.166-0.109-0.284z">
            </path>
            <path fill="#fff" style="fill: var(--color2, #fff)"
                d="M14.986 14.41v0.556h-0.916v2.88h-0.689v-2.88h-0.916v-0.556h2.521zM15.115 16.473c0-0.276 0.054-0.52 0.162-0.734 0.112-0.213 0.261-0.377 0.448-0.492 0.19-0.115 0.402-0.172 0.635-0.172 0.203 0 0.381 0.041 0.532 0.123 0.154 0.082 0.277 0.185 0.369 0.31v-0.389h0.694v2.727h-0.694v-0.399c-0.089 0.128-0.212 0.235-0.369 0.32-0.154 0.082-0.333 0.123-0.537 0.123-0.23 0-0.44-0.059-0.63-0.177-0.187-0.118-0.336-0.284-0.448-0.497-0.108-0.217-0.162-0.464-0.162-0.743zM17.261 16.482c0-0.167-0.033-0.31-0.098-0.428-0.066-0.121-0.154-0.213-0.266-0.276-0.112-0.066-0.231-0.098-0.359-0.098s-0.246 0.031-0.354 0.094c-0.108 0.062-0.197 0.154-0.266 0.276-0.066 0.118-0.098 0.259-0.098 0.423s0.033 0.309 0.098 0.433c0.069 0.121 0.158 0.215 0.266 0.281 0.112 0.066 0.23 0.098 0.354 0.098 0.128 0 0.248-0.031 0.359-0.094 0.112-0.066 0.2-0.158 0.266-0.276 0.066-0.121 0.098-0.266 0.098-0.433zM19.475 17.89c-0.223 0-0.423-0.039-0.601-0.118-0.177-0.082-0.318-0.192-0.423-0.33-0.102-0.138-0.158-0.29-0.167-0.458h0.694c0.013 0.105 0.064 0.192 0.153 0.261 0.092 0.069 0.205 0.103 0.34 0.103 0.131 0 0.233-0.026 0.305-0.079 0.076-0.053 0.113-0.12 0.113-0.202 0-0.089-0.046-0.154-0.138-0.197-0.089-0.046-0.231-0.095-0.428-0.148-0.203-0.049-0.371-0.1-0.502-0.153-0.128-0.053-0.24-0.133-0.335-0.241-0.092-0.108-0.138-0.254-0.138-0.438 0-0.151 0.043-0.289 0.128-0.414 0.089-0.125 0.213-0.223 0.374-0.295 0.164-0.072 0.356-0.108 0.576-0.108 0.325 0 0.584 0.082 0.778 0.246 0.194 0.161 0.3 0.379 0.32 0.655h-0.66c-0.010-0.108-0.056-0.194-0.138-0.256-0.079-0.066-0.185-0.098-0.32-0.098-0.125 0-0.222 0.023-0.29 0.069-0.066 0.046-0.098 0.11-0.098 0.192 0 0.092 0.046 0.162 0.138 0.212 0.092 0.046 0.235 0.094 0.428 0.143 0.197 0.049 0.359 0.1 0.487 0.153s0.238 0.135 0.33 0.246c0.095 0.108 0.144 0.253 0.148 0.433 0 0.158-0.044 0.299-0.133 0.423-0.085 0.125-0.21 0.223-0.374 0.295-0.161 0.069-0.35 0.103-0.566 0.103zM22.532 17.846l-0.926-1.162v1.162h-0.689v-3.643h0.689v2.073l0.916-1.157h0.896l-1.201 1.369 1.211 1.359h-0.896zM27.077 15.473c0 0.184-0.044 0.356-0.133 0.517-0.085 0.161-0.222 0.29-0.409 0.389-0.184 0.098-0.417 0.148-0.699 0.148h-0.576v1.319h-0.689v-3.436h1.265c0.266 0 0.492 0.046 0.679 0.138s0.327 0.218 0.418 0.379c0.095 0.161 0.143 0.343 0.143 0.546zM25.807 15.97c0.19 0 0.331-0.043 0.423-0.128 0.092-0.089 0.138-0.212 0.138-0.369 0-0.335-0.187-0.502-0.561-0.502h-0.546v0.999h0.546zM28.059 15.542c0.089-0.144 0.203-0.258 0.345-0.34 0.144-0.082 0.309-0.123 0.492-0.123v0.724h-0.182c-0.217 0-0.381 0.051-0.492 0.153-0.108 0.102-0.162 0.279-0.162 0.532v1.359h-0.689v-2.727h0.689v0.423zM30.374 17.89c-0.263 0-0.499-0.057-0.709-0.172-0.21-0.118-0.376-0.284-0.497-0.497-0.118-0.213-0.177-0.459-0.177-0.738s0.061-0.525 0.182-0.738c0.125-0.213 0.294-0.377 0.507-0.492 0.213-0.118 0.451-0.177 0.714-0.177s0.501 0.059 0.714 0.177c0.214 0.115 0.381 0.279 0.502 0.492 0.125 0.213 0.187 0.459 0.187 0.738s-0.064 0.525-0.192 0.738c-0.125 0.213-0.295 0.379-0.512 0.497-0.213 0.115-0.453 0.172-0.719 0.172zM30.374 17.29c0.125 0 0.241-0.030 0.35-0.089 0.112-0.062 0.2-0.154 0.266-0.276s0.098-0.269 0.098-0.443c0-0.259-0.069-0.458-0.207-0.596-0.134-0.141-0.3-0.212-0.497-0.212s-0.363 0.071-0.497 0.212c-0.131 0.138-0.197 0.336-0.197 0.596s0.064 0.459 0.192 0.601c0.131 0.138 0.295 0.207 0.492 0.207z">
            </path>
        </symbol>
        <symbol id="icon-logo-full-white-theme" viewBox="0 0 32 32">
            <path fill="#1f1f1f" style="fill: var(--color1, #1f1f1f)"
                d="M7.385 11.077h-4.923c-1.359 0-2.462 1.102-2.462 2.462v4.923c0 1.359 1.102 2.462 2.462 2.462h4.923c1.359 0 2.462-1.102 2.462-2.462v-4.923c0-1.359-1.102-2.462-2.462-2.462z">
            </path>
            <path fill="#fff" style="fill: var(--color2, #fff)"
                d="M4.102 18.162c0.075-0.391 0.139-0.803 0.23-1.215 0.045-0.216-0.010-0.308-0.251-0.291s-0.51 0.008-0.766 0c-0.256-0.008-0.302-0.137-0.155-0.321 0.727-0.898 1.462-1.785 2.195-2.669 0.082-0.1 0.177-0.172 0.312-0.096s0.107 0.169 0.085 0.281c-0.081 0.412-0.148 0.824-0.237 1.227-0.046 0.209 0.014 0.283 0.231 0.275 0.218-0.011 0.437-0.011 0.655 0 0.124 0 0.287-0.065 0.351 0.104s-0.071 0.24-0.139 0.34c-0.279 0.343-0.561 0.686-0.847 1.028-0.419 0.5-0.834 0.998-1.247 1.494-0.081 0.097-0.171 0.176-0.309 0.126s-0.109-0.166-0.109-0.284z">
            </path>
            <path fill="#161616" style="fill: var(--color5, #161616)"
                d="M14.986 14.41v0.556h-0.916v2.88h-0.689v-2.88h-0.916v-0.556h2.521zM15.115 16.473c0-0.276 0.054-0.52 0.162-0.734 0.112-0.213 0.261-0.377 0.448-0.492 0.19-0.115 0.402-0.172 0.635-0.172 0.203 0 0.381 0.041 0.532 0.123 0.154 0.082 0.277 0.185 0.369 0.31v-0.389h0.694v2.727h-0.694v-0.399c-0.089 0.128-0.212 0.235-0.369 0.32-0.154 0.082-0.333 0.123-0.537 0.123-0.23 0-0.44-0.059-0.63-0.177-0.187-0.118-0.336-0.284-0.448-0.497-0.108-0.217-0.162-0.464-0.162-0.743zM17.261 16.482c0-0.167-0.033-0.31-0.098-0.428-0.066-0.121-0.154-0.213-0.266-0.276-0.112-0.066-0.231-0.098-0.359-0.098s-0.246 0.031-0.354 0.094c-0.108 0.062-0.197 0.154-0.266 0.276-0.066 0.118-0.098 0.259-0.098 0.423s0.033 0.309 0.098 0.433c0.069 0.121 0.158 0.215 0.266 0.281 0.112 0.066 0.23 0.098 0.354 0.098 0.128 0 0.248-0.031 0.359-0.094 0.112-0.066 0.2-0.158 0.266-0.276 0.066-0.121 0.098-0.266 0.098-0.433zM19.475 17.89c-0.223 0-0.423-0.039-0.601-0.118-0.177-0.082-0.318-0.192-0.423-0.33-0.102-0.138-0.158-0.29-0.167-0.458h0.694c0.013 0.105 0.064 0.192 0.153 0.261 0.092 0.069 0.205 0.103 0.34 0.103 0.131 0 0.233-0.026 0.305-0.079 0.076-0.053 0.113-0.12 0.113-0.202 0-0.089-0.046-0.154-0.138-0.197-0.089-0.046-0.231-0.095-0.428-0.148-0.203-0.049-0.371-0.1-0.502-0.153-0.128-0.053-0.24-0.133-0.335-0.241-0.092-0.108-0.138-0.254-0.138-0.438 0-0.151 0.043-0.289 0.128-0.414 0.089-0.125 0.213-0.223 0.374-0.295 0.164-0.072 0.356-0.108 0.576-0.108 0.325 0 0.584 0.082 0.778 0.246 0.194 0.161 0.3 0.379 0.32 0.655h-0.66c-0.010-0.108-0.056-0.194-0.138-0.256-0.079-0.066-0.185-0.098-0.32-0.098-0.125 0-0.222 0.023-0.29 0.069-0.066 0.046-0.098 0.11-0.098 0.192 0 0.092 0.046 0.162 0.138 0.212 0.092 0.046 0.235 0.094 0.428 0.143 0.197 0.049 0.359 0.1 0.487 0.153s0.238 0.135 0.33 0.246c0.095 0.108 0.144 0.253 0.148 0.433 0 0.158-0.044 0.299-0.133 0.423-0.085 0.125-0.21 0.223-0.374 0.295-0.161 0.069-0.35 0.103-0.566 0.103zM22.532 17.846l-0.926-1.162v1.162h-0.689v-3.643h0.689v2.073l0.916-1.157h0.896l-1.201 1.369 1.211 1.359h-0.896zM27.077 15.473c0 0.184-0.044 0.356-0.133 0.517-0.085 0.161-0.222 0.29-0.409 0.389-0.184 0.098-0.417 0.148-0.699 0.148h-0.576v1.319h-0.689v-3.436h1.265c0.266 0 0.492 0.046 0.679 0.138s0.327 0.218 0.418 0.379c0.095 0.161 0.143 0.343 0.143 0.546zM25.807 15.97c0.19 0 0.331-0.043 0.423-0.128 0.092-0.089 0.138-0.212 0.138-0.369 0-0.335-0.187-0.502-0.561-0.502h-0.546v0.999h0.546zM28.059 15.542c0.089-0.144 0.203-0.258 0.345-0.34 0.144-0.082 0.309-0.123 0.492-0.123v0.724h-0.182c-0.217 0-0.381 0.051-0.492 0.153-0.108 0.102-0.162 0.279-0.162 0.532v1.359h-0.689v-2.727h0.689v0.423zM30.374 17.89c-0.263 0-0.499-0.057-0.709-0.172-0.21-0.118-0.376-0.284-0.497-0.497-0.118-0.213-0.177-0.459-0.177-0.738s0.061-0.525 0.182-0.738c0.125-0.213 0.294-0.377 0.507-0.492 0.213-0.118 0.451-0.177 0.714-0.177s0.501 0.059 0.714 0.177c0.214 0.115 0.381 0.279 0.502 0.492 0.125 0.213 0.187 0.459 0.187 0.738s-0.064 0.525-0.192 0.738c-0.125 0.213-0.295 0.379-0.512 0.497-0.213 0.115-0.453 0.172-0.719 0.172zM30.374 17.29c0.125 0 0.241-0.030 0.35-0.089 0.112-0.062 0.2-0.154 0.266-0.276s0.098-0.269 0.098-0.443c0-0.259-0.069-0.458-0.207-0.596-0.134-0.141-0.3-0.212-0.497-0.212s-0.363 0.071-0.497 0.212c-0.131 0.138-0.197 0.336-0.197 0.596s0.064 0.459 0.192 0.601c0.131 0.138 0.295 0.207 0.492 0.207z">
            </path>
        </symbol>
        <symbol id="icon-logo-icon-black" viewBox="0 0 32 32">
            <path fill="#1f1f1f" style="fill: var(--color1, #1f1f1f)"
                d="M24 0h-16c-4.418 0-8 3.582-8 8v16c0 4.418 3.582 8 8 8h16c4.418 0 8-3.582 8-8v-16c0-4.418-3.582-8-8-8z">
            </path>
            <path fill="#fff" style="fill: var(--color2, #fff)"
                d="M13.331 23.027c0.245-1.272 0.453-2.61 0.747-3.949 0.145-0.701-0.032-0.999-0.815-0.946s-1.657 0.027-2.49 0c-0.833-0.027-0.982-0.446-0.502-1.044 2.363-2.918 4.753-5.8 7.134-8.674 0.267-0.326 0.575-0.558 1.014-0.312s0.349 0.549 0.276 0.915c-0.263 1.339-0.48 2.677-0.77 3.989-0.149 0.678 0.045 0.919 0.751 0.892 0.709-0.036 1.419-0.036 2.127 0 0.403 0 0.933-0.21 1.141 0.339s-0.231 0.781-0.453 1.107c-0.905 1.115-1.823 2.229-2.752 3.342-1.361 1.624-2.711 3.242-4.051 4.854-0.263 0.317-0.557 0.571-1.005 0.41s-0.353-0.54-0.353-0.924z">
            </path>
        </symbol>
        <symbol id="icon-logo-icon-violet" viewBox="0 0 32 32">
            <path fill="#ecedfd" style="fill: var(--color3, #ecedfd)"
                d="M24 0h-16c-4.418 0-8 3.582-8 8v16c0 4.418 3.582 8 8 8h16c4.418 0 8-3.582 8-8v-16c0-4.418-3.582-8-8-8z">
            </path>
            <path fill="#5255bc" style="fill: var(--color4, #5255bc)"
                d="M13.331 23.027c0.245-1.272 0.453-2.61 0.747-3.949 0.145-0.701-0.032-0.999-0.815-0.946s-1.657 0.027-2.49 0c-0.833-0.027-0.982-0.446-0.502-1.044 2.363-2.918 4.753-5.8 7.134-8.674 0.267-0.326 0.575-0.558 1.014-0.312s0.349 0.549 0.276 0.915c-0.263 1.339-0.48 2.677-0.77 3.989-0.149 0.678 0.045 0.919 0.751 0.892 0.709-0.036 1.419-0.036 2.127 0 0.403 0 0.933-0.21 1.141 0.339s-0.231 0.781-0.453 1.107c-0.905 1.115-1.823 2.229-2.752 3.342-1.361 1.624-2.711 3.242-4.051 4.854-0.263 0.317-0.557 0.571-1.005 0.41s-0.353-0.54-0.353-0.924z">
            </path>
        </symbol>
        <symbol id="icon-logout" viewBox="0 0 32 32">
            <path stroke-linejoin="round" stroke-linecap="round" stroke-miterlimit="4" stroke-width="1.5"
                d="M11.867 10.080c0.413-4.8 2.88-6.76 8.28-6.76h0.173c5.96 0 8.347 2.387 8.347 8.347v8.693c0 5.96-2.387 8.347-8.347 8.347h-0.173c-5.36 0-7.827-1.933-8.267-6.653">
            </path>
            <path stroke-linejoin="round" stroke-linecap="round" stroke-miterlimit="4" stroke-width="1.5"
                d="M2.667 16h17.173"></path>
            <path stroke-linejoin="round" stroke-linecap="round" stroke-miterlimit="4" stroke-width="1.5"
                d="M16.867 11.533l4.467 4.467-4.467 4.467"></path>
        </symbol>
        <symbol id="icon-pen" viewBox="0 0 32 32">
            <path stroke-linejoin="round" stroke-linecap="round" stroke-miterlimit="4" stroke-width="2.7733"
                d="M1.422 30.578l7.892-3.036c0.505-0.194 0.757-0.291 0.993-0.418 0.21-0.113 0.41-0.243 0.598-0.389 0.212-0.164 0.403-0.355 0.785-0.738l16.042-16.042c1.571-1.571 1.571-4.118 0-5.689s-4.118-1.571-5.689 0l-16.042 16.042c-0.382 0.382-0.574 0.574-0.738 0.785-0.146 0.188-0.276 0.388-0.388 0.598-0.127 0.236-0.224 0.489-0.418 0.994l-3.035 7.892zM1.422 30.578l2.927-7.61c0.209-0.545 0.314-0.817 0.494-0.942 0.157-0.109 0.351-0.15 0.539-0.114 0.215 0.041 0.421 0.247 0.834 0.66l3.213 3.213c0.413 0.413 0.619 0.619 0.66 0.834 0.036 0.188-0.005 0.382-0.114 0.539-0.125 0.18-0.397 0.284-0.942 0.494l-7.61 2.927z">
            </path>
        </symbol>
        <symbol id="icon-plus" viewBox="0 0 32 32">
            <path stroke-linejoin="round" stroke-linecap="round" stroke-miterlimit="4" stroke-width="2.88"
                d="M16 6.667v18.667"></path>
            <path stroke-linejoin="round" stroke-linecap="round" stroke-miterlimit="4" stroke-width="2.88"
                d="M6.666 16h18.667"></path>
        </symbol>
        <symbol id="icon-plus-button-black" viewBox="0 0 32 32">
            <path
                d="M25.143 0h-18.286c-3.787 0-6.857 3.070-6.857 6.857v18.286c0 3.787 3.070 6.857 6.857 6.857h18.286c3.787 0 6.857-3.070 6.857-6.857v-18.286c0-3.787-3.070-6.857-6.857-6.857z">
            </path>
            <path fill="none" stroke="#fff" style="stroke: var(--color2, #fff)" stroke-linejoin="round"
                stroke-linecap="round" stroke-miterlimit="4" stroke-width="1.1429" d="M16 11.333v9.333"></path>
            <path fill="none" stroke="#fff" style="stroke: var(--color2, #fff)" stroke-linejoin="round"
                stroke-linecap="round" stroke-miterlimit="4" stroke-width="1.1429" d="M11.333 16h9.333"></path>
        </symbol>
        <symbol id="icon-plus-button-white" viewBox="0 0 32 32">
            <path fill="#fff" style="fill: var(--color2, #fff)"
                d="M25.143 0h-18.286c-3.787 0-6.857 3.070-6.857 6.857v18.286c0 3.787 3.070 6.857 6.857 6.857h18.286c3.787 0 6.857-3.070 6.857-6.857v-18.286c0-3.787-3.070-6.857-6.857-6.857z">
            </path>
            <path fill="none" stroke="#161616" style="stroke: var(--color5, #161616)" stroke-linejoin="round"
                stroke-linecap="round" stroke-miterlimit="4" stroke-width="1.1429" d="M16 11.333v9.333"></path>
            <path fill="none" stroke="#161616" style="stroke: var(--color5, #161616)" stroke-linejoin="round"
                stroke-linecap="round" stroke-miterlimit="4" stroke-width="1.1429" d="M11.333 16h9.333"></path>
        </symbol>
        <symbol id="icon-plus-white" viewBox="0 0 32 32">
            <path fill="none" stroke="#fff" style="stroke: var(--color2, #fff)" stroke-linejoin="round"
                stroke-linecap="round" stroke-miterlimit="4" stroke-width="2.2857" d="M16 6.667v18.667"></path>
            <path fill="none" stroke="#fff" style="stroke: var(--color2, #fff)" stroke-linejoin="round"
                stroke-linecap="round" stroke-miterlimit="4" stroke-width="2.2857" d="M6.666 16h18.667"></path>
        </symbol>
        <symbol id="icon-puzzle" viewBox="0 0 32 32">
            <path stroke-linejoin="round" stroke-linecap="round" stroke-miterlimit="4" stroke-width="2.6667"
                d="M16 2.667l4.8 4.8c3.2-8.4 12.133 0.533 3.733 3.733l4.8 4.8-4.8 4.8c-3.2-8.4-12.133 0.533-3.733 3.733l-4.8 4.8-4.8-4.8c-3.2 8.4-12.133-0.533-3.733-3.733l-4.8-4.8 4.8-4.8c3.2 8.4 12.133-0.533 3.733-3.733l4.8-4.8z">
            </path>
        </symbol>
        <symbol id="icon-star" viewBox="0 0 32 32">
            <path stroke-linejoin="round" stroke-linecap="round" stroke-miterlimit="4" stroke-width="2.6667"
                d="M16 2.667l2.683 6.975c0.376 0.978 0.564 1.466 0.856 1.878 0.259 0.364 0.577 0.683 0.942 0.942 0.411 0.292 0.9 0.48 1.878 0.856l6.975 2.683-6.975 2.683c-0.978 0.376-1.466 0.564-1.878 0.856-0.364 0.259-0.683 0.577-0.942 0.942-0.292 0.411-0.48 0.9-0.856 1.878l-2.683 6.975-2.683-6.975c-0.376-0.978-0.564-1.466-0.856-1.878-0.259-0.364-0.578-0.683-0.942-0.942-0.411-0.292-0.9-0.48-1.878-0.856l-6.975-2.683 6.975-2.683c0.978-0.376 1.466-0.564 1.878-0.856 0.364-0.259 0.683-0.578 0.942-0.942 0.292-0.411 0.48-0.9 0.856-1.878l2.683-6.975z">
            </path>
        </symbol>
        <symbol id="icon-trash" viewBox="0 0 32 32">
            <path stroke-linejoin="round" stroke-linecap="round" stroke-miterlimit="4" stroke-width="2.6" d="M12 4h8">
            </path>
            <path stroke-linejoin="round" stroke-linecap="round" stroke-miterlimit="4" stroke-width="2.6" d="M4 8h24">
            </path>
            <path stroke-linejoin="round" stroke-linecap="round" stroke-miterlimit="4" stroke-width="2.6"
                d="M6.667 8l0.801 12.018c0.149 2.231 0.223 3.347 0.588 4.243 0.662 1.627 2.004 2.883 3.672 3.435 0.919 0.304 2.037 0.304 4.273 0.304v0c2.236 0 3.354 0 4.273-0.304 1.668-0.552 3.010-1.808 3.672-3.435 0.365-0.896 0.439-2.012 0.588-4.243l0.801-12.018">
            </path>
        </symbol>
        <symbol id="icon-user-icon-dark-theme" viewBox="0 0 32 32">
            <path fill="#1f1f1f" style="fill: var(--color1, #1f1f1f)"
                d="M3.765 0h24.471c2.079 0 3.765 1.686 3.765 3.765v24.471c0 2.079-1.686 3.765-3.765 3.765h-24.471c-2.079 0-3.765-1.686-3.765-3.765v-24.471c0-2.079 1.686-3.765 3.765-3.765z">
            </path>
            <path fill="#151515" style="fill: var(--color6, #151515)"
                d="M21.49 14.745c0 2.946-2.388 5.333-5.333 5.333s-5.333-2.388-5.333-5.333c0-2.946 2.388-5.333 5.333-5.333s5.333 2.388 5.333 5.333z">
            </path>
            <path fill="#151515" style="fill: var(--color6, #151515)"
                d="M29.060 32.853c0-1.723-0.339-3.429-0.999-5.020s-1.626-3.038-2.844-4.256c-1.218-1.218-2.664-2.184-4.256-2.844s-3.297-0.999-5.020-0.999c-1.723 0-3.429 0.339-5.020 0.999s-3.038 1.626-4.256 2.844c-1.218 1.218-2.184 2.664-2.844 4.256s-0.999 3.297-0.999 5.020h26.237z">
            </path>
        </symbol>
        <symbol id="icon-user-icon-violet-theme" viewBox="0 0 32 32">
            <path fill="#ecedfd" style="fill: var(--color3, #ecedfd)"
                d="M3.765 0h24.471c2.079 0 3.765 1.686 3.765 3.765v24.471c0 2.079-1.686 3.765-3.765 3.765h-24.471c-2.079 0-3.765-1.686-3.765-3.765v-24.471c0-2.079 1.686-3.765 3.765-3.765z">
            </path>
            <path fill="#fff" style="fill: var(--color2, #fff)"
                d="M21.49 14.745c0 2.946-2.388 5.333-5.333 5.333s-5.333-2.388-5.333-5.333c0-2.946 2.388-5.333 5.333-5.333s5.333 2.388 5.333 5.333z">
            </path>
            <path fill="#fff" style="fill: var(--color2, #fff)"
                d="M29.060 32.853c0-1.723-0.339-3.429-0.999-5.020s-1.626-3.038-2.844-4.256c-1.218-1.218-2.664-2.184-4.256-2.844s-3.297-0.999-5.020-0.999c-1.723 0-3.429 0.339-5.020 0.999s-3.038 1.626-4.256 2.844c-1.218 1.218-2.184 2.664-2.844 4.256s-0.999 3.297-0.999 5.020h26.237z">
            </path>
        </symbol>
        <symbol id="icon-user-icon-white-theme" viewBox="0 0 32 32">
            <path fill="#f6f6f7" style="fill: var(--color7, #f6f6f7)"
                d="M3.765 0h24.471c2.079 0 3.765 1.686 3.765 3.765v24.471c0 2.079-1.686 3.765-3.765 3.765h-24.471c-2.079 0-3.765-1.686-3.765-3.765v-24.471c0-2.079 1.686-3.765 3.765-3.765z">
            </path>
            <path fill="#fff" style="fill: var(--color2, #fff)"
                d="M21.49 14.745c0 2.946-2.388 5.333-5.333 5.333s-5.333-2.388-5.333-5.333c0-2.946 2.388-5.333 5.333-5.333s5.333 2.388 5.333 5.333z">
            </path>
            <path fill="#fff" style="fill: var(--color2, #fff)"
                d="M29.060 32.853c0-1.723-0.339-3.429-0.999-5.020s-1.626-3.038-2.844-4.256c-1.218-1.218-2.664-2.184-4.256-2.844s-3.297-0.999-5.020-0.999c-1.723 0-3.429 0.339-5.020 0.999s-3.038 1.626-4.256 2.844c-1.218 1.218-2.184 2.664-2.844 4.256s-0.999 3.297-0.999 5.020h26.237z">
            </path>
        </symbol>
    </defs>
</svg>